<?xml version="1.0" standalone="no"?>
<!DOCTYPE svg PUBLIC "-//W3C//DTD SVG 20010904//EN"
 "http://www.w3.org/TR/2001/REC-SVG-20010904/DTD/svg10.dtd">
<svg version="1.0" xmlns="http://www.w3.org/2000/svg"
 width="150.000000pt" height="85.000000pt" viewBox="0 0 150.000000 85.000000"
 preserveAspectRatio="xMidYMid meet">

<g transform="translate(0.000000,85.000000) scale(0.100000,-0.100000)"
fill="#000000" stroke="none">
<path d="M290 837 c-56 -16 -116 -52 -135 -81 -17 -26 -65 -223 -65 -267 0
-21 10 -40 31 -61 29 -30 32 -30 105 -26 40 3 74 4 74 2 0 -8 -43 -184 -51
-211 -11 -35 -45 -46 -55 -18 -5 13 10 100 32 183 6 22 5 22 -84 22 l-90 0
-26 -105 c-14 -57 -26 -114 -26 -126 0 -32 60 -85 111 -99 96 -26 248 18 294
86 21 31 155 555 155 604 0 33 -24 66 -61 86 -41 21 -153 27 -209 11z m90
-113 c0 -20 -38 -172 -50 -201 -10 -24 -44 -31 -55 -13 -6 9 39 202 52 223 9
14 53 7 53 -9z"/>
<path d="M715 820 c-8 -26 -62 -70 -86 -70 -21 0 -33 -23 -44 -84 -7 -35 -6
-36 24 -36 17 0 31 -5 31 -10 0 -6 -18 -85 -40 -176 -22 -92 -40 -168 -40
-170 0 -2 40 -4 90 -4 l89 0 10 38 c21 80 131 522 131 527 0 3 -36 5 -79 5
-70 0 -80 -2 -86 -20z"/>
<path d="M1005 810 c-15 -29 -60 -60 -88 -60 -9 0 -19 -18 -26 -44 -17 -68
-15 -76 19 -76 17 0 30 -3 30 -7 0 -5 -18 -82 -40 -172 -22 -90 -40 -167 -40
-172 0 -5 40 -9 89 -9 l89 0 66 268 c37 147 69 275 72 285 5 15 -3 17 -75 17
-79 0 -81 0 -96 -30z"/>
<path d="M672 195 c0 -16 2 -22 5 -12 2 9 2 23 0 30 -3 6 -5 -1 -5 -18z"/>
<path d="M741 204 c0 -11 3 -14 6 -6 3 7 2 16 -1 19 -3 4 -6 -2 -5 -13z"/>
<path d="M991 203 c-1 -12 -7 -24 -13 -26 -10 -4 -10 -6 0 -6 15 -1 26 23 19
41 -3 7 -6 3 -6 -9z"/>
<path d="M1300 219 c0 -2 -9 -35 -19 -72 -11 -37 -16 -65 -12 -62 11 6 44 125
37 133 -3 3 -6 3 -6 1z"/>
<path d="M1377 200 c-4 -14 -6 -47 -6 -75 l2 -50 8 65 c9 69 7 101 -4 60z"/>
<path d="M1481 203 c-1 -12 -7 -24 -13 -26 -10 -4 -10 -6 0 -6 15 -1 26 23 19
41 -3 7 -6 3 -6 -9z"/>
<path d="M576 194 c-4 -9 -4 -19 -1 -22 2 -3 7 3 11 12 4 9 4 19 1 22 -2 3 -7
-3 -11 -12z"/>
<path d="M780 190 c0 -11 2 -20 4 -20 2 0 6 9 9 20 3 11 1 20 -4 20 -5 0 -9
-9 -9 -20z"/>
<path d="M946 184 c-4 -14 -5 -29 -2 -31 3 -3 8 7 12 21 3 15 4 29 1 32 -2 3
-8 -7 -11 -22z"/>
<path d="M1037 203 c-4 -3 -7 -13 -7 -22 1 -13 3 -13 11 2 11 19 8 33 -4 20z"/>
<path d="M1201 164 c-15 -61 -8 -68 9 -9 7 25 10 48 8 51 -3 2 -11 -16 -17
-42z"/>
<path d="M1435 201 c-3 -5 -1 -12 5 -16 5 -3 10 1 10 9 0 18 -6 21 -15 7z"/>
<path d="M890 175 c-8 -9 -8 -15 -2 -15 12 0 26 19 19 26 -2 2 -10 -2 -17 -11z"/>
<path d="M731 164 c0 -11 3 -14 6 -6 3 7 2 16 -1 19 -3 4 -6 -2 -5 -13z"/>
<path d="M564 146 c-3 -8 -4 -23 -1 -33 4 -14 5 -13 6 5 1 13 10 26 24 32 l22
9 -23 0 c-12 1 -25 -5 -28 -13z"/>
<path d="M770 141 c-13 -25 -13 -44 0 -36 6 3 10 15 10 25 0 10 8 21 18 23 16
4 16 5 0 6 -10 0 -22 -8 -28 -18z"/>
<path d="M1019 134 c-5 -15 -7 -29 -5 -32 3 -3 10 7 15 21 5 14 16 27 23 30 8
4 7 6 -5 6 -10 1 -22 -10 -28 -25z"/>
<path d="M847 143 c-10 -19 -17 -64 -9 -59 6 3 12 19 14 36 5 30 3 37 -5 23z"/>
<path d="M891 134 c0 -11 3 -14 6 -6 3 7 2 16 -1 19 -3 4 -6 -2 -5 -13z"/>
<path d="M622 111 c-7 -18 -7 -31 -2 -31 11 0 25 48 17 56 -2 3 -9 -9 -15 -25z"/>
<path d="M721 124 c0 -11 3 -14 6 -6 3 7 2 16 -1 19 -3 4 -6 -2 -5 -13z"/>
<path d="M932 120 c0 -14 2 -19 5 -12 2 6 2 18 0 25 -3 6 -5 1 -5 -13z"/>
<path d="M1083 110 c-6 -17 -7 -30 -2 -30 9 0 24 48 17 55 -2 2 -9 -9 -15 -25z"/>
<path d="M1462 115 c-7 -14 -22 -30 -34 -35 -18 -7 -19 -9 -5 -9 21 -1 57 33
57 54 0 21 -5 19 -18 -10z"/>
<path d="M672 105 c-6 -14 -8 -25 -3 -25 8 0 23 41 17 47 -1 2 -8 -8 -14 -22z"/>
<path d="M971 114 c0 -11 3 -14 6 -6 3 7 2 16 -1 19 -3 4 -6 -2 -5 -13z"/>
<path d="M1415 120 c-3 -5 -1 -10 4 -10 6 0 11 5 11 10 0 6 -2 10 -4 10 -3 0
-8 -4 -11 -10z"/>
<path d="M1310 101 c-6 -12 -7 -21 -1 -21 10 0 24 30 17 37 -2 3 -9 -5 -16
-16z"/>
<path d="M881 94 c0 -11 3 -14 6 -6 3 7 2 16 -1 19 -3 4 -6 -2 -5 -13z"/>
<path d="M1141 94 c0 -11 3 -14 6 -6 3 7 2 16 -1 19 -3 4 -6 -2 -5 -13z"/>
<path d="M1210 90 c-13 -8 -12 -10 3 -10 9 0 17 5 17 10 0 12 -1 12 -20 0z"/>
<path d="M925 80 c-3 -5 -2 -10 4 -10 5 0 13 5 16 10 3 6 2 10 -4 10 -5 0 -13
-4 -16 -10z"/>
</g>
</svg>
